Coordinates
version=1
nRows=13
nColumns=40
inDegrees=yes

Units are S.I. units (second, meters, Newtons, ...)
Angles are in degrees.

endheader
time	pelvis_tilt	pelvis_list	pelvis_rotation	pelvis_tx	pelvis_ty	pelvis_tz	hip_flexion_r	hip_adduction_r	hip_rotation_r	knee_angle_r	knee_angle_r_beta	ankle_angle_r	subtalar_angle_r	mtp_angle_r	hip_flexion_l	hip_adduction_l	hip_rotation_l	knee_angle_l	knee_angle_l_beta	ankle_angle_l	subtalar_angle_l	mtp_angle_l	lumbar_extension	lumbar_bending	lumbar_rotation	arm_flex_r	arm_add_r	arm_rot_r	elbow_flex_r	pro_sup_r	wrist_flex_r	wrist_dev_r	arm_flex_l	arm_add_l	arm_rot_l	elbow_flex_l	pro_sup_l	wrist_flex_l	wrist_dev_l
     57.19000000	     -7.38429417	     -7.95013059	      2.82224038	      1.05475275	      0.91047189	      0.50991534	      0.35758240	      7.38035768	    -16.31643293	      8.52932522	      8.52932522	     17.91559401	      7.67962449	     -2.83805103	     37.72412736	    -11.99010287	     -1.94264865	     18.19720927	     18.19720927	      5.18114943	     -6.25785468	     11.80247167	    -11.51216796	      7.51952712	      4.79391555	     47.75699517	    -17.35976512	      3.85584127	     99.78938803	     44.05113624	      0.00000000	      0.00000000	    -18.04231980	     -9.36245811	     -0.78936970	     28.43828594	     46.27482225	      0.00000000	      0.00000000
     57.20171429	     -7.42641677	     -7.85090669	      2.88172479	      1.05689424	      0.90890917	      0.50789772	     -0.16296359	      7.11977731	    -16.17376502	      8.89128586	      8.89128586	     18.52482175	      7.50767814	     -2.70003791	     37.38730831	    -11.67165615	     -2.36283097	     18.42714959	     18.42714959	      3.94072106	     -6.56683075	     10.70944669	    -11.12466224	      7.38954991	      4.44913704	     48.05760197	    -16.64442161	      3.85609563	    101.23775762	     44.03717434	      0.00000000	      0.00000000	    -18.86787177	     -9.29394877	     -0.43086510	     28.05805379	     46.19559494	      0.00000000	      0.00000000
     57.21342857	     -7.39304910	     -7.74633377	      2.94796366	      1.05911426	      0.90760718	      0.50572877	     -0.73417229	      6.83600294	    -16.02024745	      9.31091765	      9.31091765	     19.04753150	      7.27335282	     -2.64231919	     37.06892917	    -11.37182821	     -2.60474639	     19.03624542	     19.03624542	      2.87277295	     -6.94293938	      9.89746136	    -10.83580257	      7.27701586	      4.19799812	     48.18954237	    -16.11368347	      3.87691274	    102.66770254	     44.00761439	      0.00000000	      0.00000000	    -19.51163858	     -9.23724208	     -0.30792618	     27.83448664	     46.16111892	      0.00000000	      0.00000000
     57.22514286	     -7.39409237	     -7.57109656	      2.95706225	      1.06153555	      0.90650855	      0.50347938	     -1.27046472	      6.44878118	    -15.85758993	      9.78531459	      9.78531459	     19.72240218	      7.14786863	     -1.86547665	     36.52757127	    -10.98700592	     -2.57733751	     19.27851036	     19.27851036	      0.41262980	     -8.00786137	      5.82097107	    -10.55769471	      7.04995415	      4.65674507	     47.52584443	    -16.43194340	      3.27245266	    105.23186150	     44.01522517	      0.00000000	      0.00000000	    -19.80285435	     -9.35259146	     -0.05896283	     27.95098251	     46.10085673	      0.00000000	      0.00000000
     57.23685714	     -7.37068354	     -7.34320760	      3.01224509	      1.06385495	      0.90577835	      0.50107147	     -1.86746631	      6.00467322	    -15.76994925	     10.13974706	     10.13974706	     19.99519268	      7.04120185	     -1.92806533	     36.30429563	    -10.61218510	     -2.53738726	     20.31120363	     20.31120363	     -0.09965044	     -8.35332169	      5.59363621	    -10.25157543	      6.76768903	      4.38694185	     47.33583894	    -16.03093382	      3.36945906	    105.84534138	     43.99858483	      0.00000000	      0.00000000	    -20.17124092	     -9.29613182	     -0.00670522	     27.71873773	     46.08558481	      0.00000000	      0.00000000
     57.24857143	     -7.42932526	     -7.18666562	      3.07285051	      1.06604768	      0.90518999	      0.49851392	     -2.17329592	      5.55065796	    -15.77088331	     10.86718167	     10.86718167	     20.20793734	      6.92684528	     -2.01913531	     36.20796247	    -10.26475244	     -2.21155709	     21.40038369	     21.40038369	     -0.48787242	     -8.92942541	      5.09320154	     -9.94920239	      6.61928362	      4.03581227	     46.95623898	    -15.44871845	      3.45157479	    107.19674401	     43.96342750	      0.00000000	      0.00000000	    -20.43605557	     -9.15694687	      0.03665007	     27.52557736	     46.07295740	      0.00000000	      0.00000000
     57.26028571	     -7.51587268	     -6.92060655	      3.13445500	      1.06807821	      0.90498080	      0.49572431	     -2.37170271	      4.92043439	    -15.85181651	     11.72726268	     11.72726268	     20.40941700	      6.90181595	     -2.17221342	     36.08385986	     -9.78289647	     -1.80352527	     22.40936968	     22.40936968	     -0.74003337	     -9.67572926	      4.57204863	     -9.69273236	      6.35378416	      3.92758081	     46.21156457	    -15.25271010	      3.34639043	    108.77320231	     43.93197987	      0.00000000	      0.00000000	    -20.36301643	     -9.04141234	      0.01782665	     27.47127823	     46.07529862	      0.00000000	      0.00000000
     57.27200000	     -7.52337379	     -6.61759262	      3.16589565	      1.07009417	      0.90535175	      0.49279215	     -2.64533363	      4.21090208	    -16.05271042	     12.59340864	     12.59340864	     20.39776833	      7.13545831	     -2.48404590	     35.78270197	     -9.25499287	     -1.33301400	     23.29736654	     23.29736654	     -0.66872591	    -10.56102119	      4.22578487	     -9.57851834	      6.03871816	      4.46021221	     44.84998251	    -15.73374499	      2.65731471	    110.80615928	     43.93974791	      0.00000000	      0.00000000	    -19.78154098	     -9.09038792	     -0.08759957	     27.26695046	     46.09627769	      0.00000000	      0.00000000
     57.28371429	     -7.56375909	     -6.39165450	      3.19304404	      1.07192788	      0.90597494	      0.48977648	     -2.71894938	      3.54744339	    -16.09877404	     13.71564715	     13.71564715	     20.27325533	      7.04399411	     -2.81431988	     35.58091526	     -8.83350554	     -0.96404221	     24.27857584	     24.27857584	     -0.14342874	    -11.14715833	      4.14182584	     -9.43396189	      5.84981879	      4.26845244	     43.96417515	    -15.48944717	      2.75169920	    111.43774159	     43.92685176	      0.00000000	      0.00000000	    -19.50297701	     -8.94379467	     -0.08414536	     27.27203162	     46.09865415	      0.00000000	      0.00000000
     57.29542857	     -7.52468071	     -6.15282807	      3.19812504	      1.07373859	      0.90706930	      0.48661111	     -2.80444659	      2.82257132	    -16.14830239	     14.95190750	     14.95190750	     20.02268783	      7.01680776	     -3.24879185	     35.19594204	     -8.39492830	     -0.60596565	     25.09452438	     25.09452438	      0.55929759	    -11.77415165	      4.20390096	     -9.40392232	      5.68585448	      4.20484850	     42.82986544	    -15.40437081	      2.83656103	    111.88247346	     43.91555989	      0.00000000	      0.00000000	    -19.10453522	     -8.85757372	     -0.11875388	     27.39490339	     46.10935215	      0.00000000	      0.00000000
     57.30714286	     -7.66034436	     -5.88217173	      3.20952486	      1.07518236	      0.90819474	      0.48326794	     -2.36251922	      1.90629588	    -16.39532887	     16.79044107	     16.79044107	     19.56759967	      7.06351387	     -4.35994920	     34.89407397	     -7.83900054	     -0.17395810	     25.68120078	     25.68120078	      1.44481322	    -12.52942137	      4.94330050	     -9.25286529	      5.44457243	      4.35187099	     41.41746220	    -15.64593314	      2.67807603	    112.65880781	     43.90971847	      0.00000000	      0.00000000	    -18.39260477	     -8.70701621	     -0.22789895	     27.70619247	     46.13503559	      0.00000000	      0.00000000
     57.31885714	     -7.48020188	     -5.78954301	      3.21589828	      1.07693345	      0.91003083	      0.47998638	     -2.43403894	      1.29499006	    -16.36806365	     18.23245219	     18.23245219	     18.92188980	      6.94713246	     -4.89930593	     34.20746472	     -7.55320862	      0.06231814	     26.18390545	     26.18390545	      2.31272257	    -12.97598565	      5.02803748	     -9.43885280	      5.47576156	      4.28815636	     40.00549106	    -15.57676994	      2.80186603	    112.61249313	     43.90797437	      0.00000000	      0.00000000	    -17.75897994	     -8.58251122	     -0.26234022	     28.00740666	     46.14932723	      0.00000000	      0.00000000
     57.33057143	     -7.57578443	     -5.54565426	      3.10919980	      1.07826867	      0.91152440	      0.47668493	     -1.68875910	      0.30830584	    -16.33313710	     20.62587056	     20.62587056	     18.15099256	      6.64873846	     -6.16898197	     33.68953019	     -7.11260555	      0.16961549	     26.47272544	     26.47272544	      3.16823290	    -13.49646938	      5.46558369	     -9.35101116	      5.28622723	      4.43613446	     38.39543965	    -15.76263802	      2.77799793	    112.47838924	     43.91626822	      0.00000000	      0.00000000	    -17.01714080	     -8.52417381	     -0.37243946	     28.53307725	     46.17545851	      0.00000000	      0.00000000
